#!OML:ASF H:\Terrain\Patient Classification 1\Terrain2\Thursday\justin.ASF
:FULLY-SPECIFIED
:DEGREES
1325
root -11.9359 17.5616 21.7209 180.834 -12.9552 -176.788
lowerback 5.25437 -0.469404 -1.40425
upperback 2.70165 -0.861628 3.02433
thorax -0.0987255 -0.546104 3.95112
lowerneck -12.5126 -0.709535 -10.9375
upperneck 40.1777 -6.58402 7.63401
head 17.4382 -5.02598 3.77865
rclavicle -4.32357e-015 1.74931e-014
rhumerus -28.0628 -11.6107 -77.0549
rradius 35.507
rwrist -16.692
rhand -22.0199 12.8213
rfingers 7.12502
rthumb 4.38953 -17.1132
lclavicle -4.32357e-015 1.74931e-014
lhumerus -31.8779 2.90036 83.5826
lradius 26.6197
lwrist 3.17392
lhand -19.7439 20.5226
lfingers 7.12502
lthumb 6.58706 50.4001
rfemur -13.3202 9.1593 19.4968
rtibia 35.0251
rfoot -15.6291 26.4976
rtoes 25.5791
lfemur -8.10285 -5.20547 -14.5847
ltibia 26.6952
lfoot -14.3666 -15.8633
ltoes 13.754
1326
root -11.9633 17.5663 21.7315 181.211 -11.7378 -176.654
lowerback 4.94084 -0.243687 -1.24351
upperback 2.69737 -0.550421 2.98742
thorax 0.0447658 -0.388704 3.80198
lowerneck -12.6857 -0.66313 -10.824
upperneck 40.2154 -6.53391 7.61983
head 17.4911 -4.98967 3.75879
rclavicle -3.8266e-015 -1.59028e-015
rhumerus -28.203 -11.8908 -77.1997
rradius 35.7778
rwrist -16.6176
rhand -22.0606 12.1588
rfingers 7.12502
rthumb 4.35026 -17.7766
lclavicle -3.8266e-015 -1.59028e-015
lhumerus -31.4322 2.76701 83.0999
lradius 26.843
lwrist 3.09686
lhand -19.921 21.1391
lfingers 7.12502
lthumb 6.41606 51.022
rfemur -14.0923 9.0767 19.6667
rtibia 35.3642
rfoot -16.2702 24.9262
rtoes 22.578
lfemur -8.33664 -4.51487 -14.5864
ltibia 26.6096
lfoot -14.647 -15.1663
ltoes 11.9097
1327
root -11.9962 17.5722 21.7364 181.123 -11.6367 -176.483
lowerback 5.09238 -0.371394 -0.961075
upperback 2.69377 -0.713939 2.99716
thorax -0.0344942 -0.469296 3.662
lowerneck -12.6936 -0.583044 -10.7908
upperneck 40.2942 -6.51433 7.69038
head 17.5358 -4.9869 3.78736
rclavicle 3.4837e-014 1.86858e-014
rhumerus -28.4713 -11.8919 -77.2838
rradius 35.9613
rwrist -16.629
rhand -22.2385 11.7029
rfingers 7.12502
rthumb 4.1785 -18.2359
lclavicle 3.4837e-014 1.86858e-014
lhumerus -31.0797 2.91873 82.586
lradius 26.8662
lwrist 2.8491
lhand -19.6924 21.6423
lfingers 7.12502
lthumb 6.63673 51.5182
rfemur -14.094 8.20619 20.0528
rtibia 35.7022
rfoot -17.3509 22.834
rtoes 18.4026
lfemur -8.13188 -4.50945 -14.4924
ltibia 26.4836
lfoot -14.7042 -15.1628
ltoes 12.405
1328
root -12.0261 17.5855 21.7417 181.06 -11.2076 -176.411
lowerback 5.35933 -0.423681 -0.919661
upperback 2.65297 -0.784963 3.06575
thorax -0.219535 -0.504901 3.71781
lowerneck -12.6281 -0.483664 -10.7544
upperneck 40.2578 -6.32374 7.54613
head 17.4583 -4.9285 3.74564
rclavicle 3.57315e-014 1.82882e-014
rhumerus -28.708 -11.6351 -77.3121
rradius 36.0201
rwrist -16.7127
rhand -22.2736 11.5672
rfingers 7.12502
rthumb 4.14453 -18.3722
lclavicle 3.57315e-014 1.82882e-014
lhumerus -30.8071 3.6294 81.8778
lradius 26.6733
lwrist 1.70185
lhand -18.6063 20.9276
lfingers 7.12502
lthumb 7.68513 50.768
rfemur -14.1641 7.57442 20.3319
rtibia 36.1201
rfoot -18.1118 20.9056
rtoes 13.5628
lfemur -7.81993 -4.31985 -14.5052
ltibia 26.2429
lfoot -14.7828 -14.9998
ltoes 13.0197
1329
root -12.0536 17.5982 21.7437 181.107 -10.6368 -176.594
lowerback 5.48901 -0.42135 -1.1869
upperback 2.67661 -0.797855 3.09738
thorax -0.262162 -0.515233 3.90468
lowerneck -12.5953 -0.424996 -10.781
upperneck 40.1547 -6.1245 7.37411
head 17.3532 -4.86718 3.70427
rclavicle 1.70955e-014 -3.85642e-014
rhumerus -28.7295 -11.5004 -77.3193
rradius 35.8482
rwrist -16.69
rhand -22.2112 12.0589
rfingers 7.12502
rthumb 4.20478 -17.8793
lclavicle 1.70955e-014 -3.85642e-014
lhumerus -30.5459 4.19456 81.2149
lradius 26.7583
lwrist 0.719389
lhand -17.9069 19.4037
lfingers 7.12502
lthumb 8.36021 49.2183
rfemur -14.3927 6.93285 20.346
rtibia 36.6277
rfoot -18.4727 19.0736
rtoes 11.4531
lfemur -7.60869 -3.70862 -14.7987
ltibia 25.9171
lfoot -14.7277 -14.9741
ltoes 12.4333
1330
root -12.08 17.6033 21.7439 181.192 -10.0327 -176.863
lowerback 5.41709 -0.375821 -1.57142
upperback 2.79297 -0.763147 3.11904
thorax -0.0992806 -0.507788 4.14129
lowerneck -12.5964 -0.450415 -10.933
upperneck 40.0623 -6.07105 7.30125
head 17.2962 -4.87159 3.7055
rclavicle 2.82771e-014 -1.74931e-014
rhumerus -28.5279 -11.4721 -77.3148
rradius 35.5525
rwrist -16.5106
rhand -22.0002 12.0886
rfingers 7.12502
rthumb 4.40857 -17.8455
lclavicle 2.82771e-014 -1.74931e-014
lhumerus -30.1275 4.15297 80.9997
lradius 27.0598
lwrist 1.3884
lhand -19.6024 16.5627
lfingers 7.12502
lthumb 6.72366 46.4359
rfemur -14.7305 6.15896 20.2934
rtibia 37.224
rfoot -18.7431 17.0777
rtoes 12.3165
lfemur -7.41093 -2.95132 -15.1791
ltibia 25.6049
lfoot -14.7161 -15.0964
ltoes 12.0403
1331
root -12.1039 17.6055 21.7442 181.264 -9.42588 -176.96
lowerback 5.28146 -0.318188 -1.76817
upperback 2.89645 -0.702713 3.14777
thorax 0.080787 -0.486659 4.27696
lowerneck -12.5887 -0.447563 -10.9174
upperneck 39.9982 -6.00774 7.16372
head 17.2418 -4.85731 3.6483
rclavicle 2.92213e-014 -3.57812e-015
rhumerus -28.4324 -11.5444 -77.326
rradius 35.3717
rwrist -16.36
rhand -21.7779 11.8123
rfingers 7.12502
rthumb 4.62325 -18.1173
lclavicle 2.92213e-014 -3.57812e-015
lhumerus -29.7364 3.80261 80.9484
lradius 27.4985
lwrist 2.73492
lhand -20.2723 20.6839
lfingers 7.12502
lthumb 6.07697 50.5767
rfemur -15.0376 5.43714 20.4545
rtibia 37.8619
rfoot -19.2315 14.8865
rtoes 11.8211
lfemur -7.15567 -2.5055 -15.347
ltibia 25.2897
lfoot -14.7449 -15.0733
ltoes 12.597
1332
root -12.1253 17.6021 21.75 181.485 -8.92833 -177.121
lowerback 5.16195 -0.250128 -1.85613
upperback 2.90639 -0.609533 3.04396
thorax 0.149056 -0.438671 4.21248
lowerneck -12.7281 -0.418746 -10.8439
upperneck 40.0426 -6.00211 7.21067
head 17.3008 -4.83848 3.657
rclavicle -5.96354e-016 1.11319e-014
rhumerus -28.4761 -11.8583 -77.4185
rradius 35.1119
rwrist -16.2046
rhand -21.9217 12.3045
rfingers 7.12502
rthumb 4.48438 -17.628
lclavicle -5.96354e-016 1.11319e-014
lhumerus -29.3628 3.69771 80.5885
lradius 27.8219
lwrist 3.31429
lhand -20.307 22.3522
lfingers 7.12502
lthumb 6.04339 52.246
rfemur -15.4338 4.60078 20.5398
rtibia 38.4758
rfoot -19.584 12.8589
rtoes 10.1231
lfemur -7.13106 -2.2862 -15.5721
ltibia 25.0066
lfoot -14.5751 -15.0408
ltoes 14.1317
1333
root -12.1468 17.6069 21.7524 181.691 -8.41845 -177.097
lowerback 5.06145 -0.165974 -1.72385
upperback 2.90885 -0.489311 2.98888
thorax 0.195157 -0.37629 4.07311
lowerneck -12.9723 -0.414926 -10.8081
upperneck 40.1337 -6.00501 7.24039
head 17.4168 -4.82885 3.66367
rclavicle 2.76808e-014 1.63003e-014
rhumerus -28.4995 -12.0135 -77.5665
rradius 34.8418
rwrist -15.9226
rhand -22.24 12.4071
rfingers 7.12502
rthumb 4.17702 -17.5317
lclavicle 2.76808e-014 1.63003e-014
lhumerus -28.843 4.32855 79.9075
lradius 27.6862
lwrist 2.63337
lhand -19.9339 21.5131
lfingers 7.12502
lthumb 6.40366 51.3963
rfemur -15.8286 3.7324 20.8671
rtibia 39.0092
rfoot -19.8343 10.7548
rtoes 9.10757
lfemur -7.199 -2.03499 -15.5926
ltibia 24.9086
lfoot -14.4466 -14.9742
ltoes 15.553
1334
root -12.1687 17.6169 21.7477 181.775 -7.92258 -176.869
lowerback 5.0683 -0.161316 -1.48523
upperback 2.88757 -0.475952 3.01796
thorax 0.16637 -0.367738 3.96753
lowerneck -13.145 -0.355266 -10.5774
upperneck 40.2317 -5.88919 6.99997
head 17.4807 -4.78151 3.52932
rclavicle -1.15295e-014 -1.59028e-015
rhumerus -28.5285 -11.974 -77.7533
rradius 34.6842
rwrist -15.5762
rhand -22.0407 11.7475
rfingers 7.12502
rthumb 4.36946 -18.1874
lclavicle -1.15295e-014 -1.59028e-015
lhumerus -28.4719 5.12309 79.1996
lradius 27.6419
lwrist 2.04163
lhand -19.0007 20.4562
lfingers 7.12502
lthumb 7.30446 50.3102
rfemur -16.0536 2.85695 21.4595
rtibia 39.4869
rfoot -20.1773 8.67748
rtoes 9.73321
lfemur -7.22613 -1.65509 -15.397
ltibia 24.9826
lfoot -14.6591 -14.8705
ltoes 15.7451
1335
root -12.1854 17.6072 21.7502 181.828 -7.54754 -176.589
lowerback 5.30375 -0.23877 -1.33551
upperback 2.73811 -0.570439 3.12937
thorax -0.111265 -0.408983 4.00693
lowerneck -13.188 -0.215952 -10.5291
upperneck 40.3738 -5.73324 6.93283
head 17.544 -4.74505 3.51516
rclavicle 4.52235e-015 -4.13472e-014
rhumerus -28.6922 -12.0219 -77.7739
rradius 34.4715
rwrist -15.5125
rhand -21.1354 11.8822
rfingers 7.12502
rthumb 5.24364 -18.0329
lclavicle 4.52235e-015 -4.13472e-014
lhumerus -28.4888 5.78295 78.6214
lradius 27.8689
lwrist 2.15117
lhand -18.8012 20.3447
lfingers 7.12502
lthumb 7.49703 50.1918
rfemur -16.2203 1.88203 22.1543
rtibia 39.9484
rfoot -20.5712 6.69854
rtoes 10.9261
lfemur -7.34239 -1.19721 -15.1174
ltibia 25.1203
lfoot -15.1363 -14.8274
ltoes 14.8008
1336
root -12.1928 17.5932 21.7618 181.876 -7.2477 -176.303
lowerback 5.59506 -0.311091 -1.2396
upperback 2.55754 -0.657808 3.26708
thorax -0.451634 -0.446221 4.10615
lowerneck -13.0067 -0.0547224 -10.6851
upperneck 40.4087 -5.5951 7.09638
head 17.5057 -4.72158 3.64235
rclavicle -5.71506e-015 3.57812e-015
rhumerus -28.9954 -12.1618 -77.7229
rradius 34.2983
rwrist -15.4883
rhand -20.4031 12.3605
rfingers 7.12502
rthumb 5.95068 -17.5359
lclavicle -5.71506e-015 3.57812e-015
lhumerus -28.6442 6.22269 78.0899
lradius 28.2007
lwrist 2.65484
lhand -21.2976 22.8385
lfingers 7.12502
lthumb 5.08703 52.7574
rfemur -16.4318 1.01331 22.9152
rtibia 40.4237
rfoot -20.9505 4.66285
rtoes 10.8318
lfemur -7.49236 -0.83376 -14.7673
ltibia 25.2635
lfoot -15.5462 -14.8543
ltoes 13.0832
1337
root -12.1986 17.5895 21.7711 181.943 -6.84246 -176.177
lowerback 5.75105 -0.307356 -1.26022
upperback 2.45985 -0.64998 3.32493
thorax -0.638675 -0.438617 4.18093
lowerneck -12.7239 0.0665107 -10.6442
upperneck 40.3 -5.43756 7.04159
head 17.3404 -4.66889 3.63489
rclavicle -4.96962e-017 -7.95139e-016
rhumerus -29.2604 -12.3213 -77.7468
rradius 34.2221
rwrist -15.121
rhand -20.229 11.9804
rfingers 7.12502
rthumb 6.11869 -17.9113
lclavicle -4.96962e-017 -7.95139e-016
lhumerus -28.5927 6.5742 77.5746
lradius 28.5173
lwrist 2.88803
lhand -24.5028 27.6272
lfingers 7.12502
lthumb 1.99172 57.5976
rfemur -16.6502 0.378874 23.4915
rtibia 40.8967
rfoot -21.2432 2.89674
rtoes 10.2059
lfemur -7.60976 -0.233345 -14.581
ltibia 25.4116
lfoot -15.637 -15.1571
ltoes 11.787
1338
root -12.2059 17.5867 21.7762 182.034 -6.45981 -176.215
lowerback 5.8755 -0.274877 -1.39892
upperback 2.36837 -0.607146 3.34242
thorax -0.803973 -0.412537 4.27805
lowerneck -12.511 0.0965223 -10.6203
upperneck 40.2234 -5.38277 6.90712
head 17.2269 -4.66866 3.57512
rclavicle -3.38928e-014 1.98785e-014
rhumerus -29.5593 -12.4773 -77.7468
rradius 34.1586
rwrist -14.7563
rhand -20.3384 11.5012
rfingers 7.12502
rthumb 6.01311 -18.3935
lclavicle -3.38928e-014 1.98785e-014
lhumerus -28.4533 6.88717 77.1964
lradius 28.7434
lwrist 3.1132
lhand -24.2543 27.4697
lfingers 7.12502
lthumb 2.23172 57.4378
rfemur -16.8495 -0.226837 23.8632
rtibia 41.3512
rfoot -21.4229 1.48126
rtoes 10.345
lfemur -7.68966 0.455876 -14.613
ltibia 25.417
lfoot -15.5268 -15.5091
ltoes 11.0756
1339
root -12.212 17.5857 21.78 182.198 -6.27945 -176.167
lowerback 5.93867 -0.286789 -1.33516
upperback 2.24586 -0.60952 3.31815
thorax -0.966142 -0.406083 4.21874
lowerneck -12.4119 0.112779 -10.5521
upperneck 40.2348 -5.41028 6.85962
head 17.2065 -4.68835 3.53366
rclavicle -7.85199e-015 3.29983e-014
rhumerus -29.8683 -12.8158 -77.7778
rradius 33.9671
rwrist -14.4602
rhand -20.3102 11.8029
rfingers 7.12502
rthumb 6.04038 -18.091
lclavicle -7.85199e-015 3.29983e-014
lhumerus -28.3246 6.84855 76.9462
lradius 29.0318
lwrist 4.26044
lhand -22.7612 24.2707
lfingers 7.12502
lthumb 3.67372 54.2188
rfemur -17.1177 -1.02118 24.3102
rtibia 41.769
rfoot -21.6631 0.384459
rtoes 11.1985
lfemur -7.76096 0.562606 -14.5804
ltibia 25.1808
lfoot -15.5107 -15.451
ltoes 10.0194
